<svg width="360" height="360" viewBox="0 0 360 360" fill="none" xmlns="http://www.w3.org/2000/svg">
<g clip-path="url(#clip0_553_696)">
<path d="M104.688 288.816C97.52 288.816 90.1813 288.219 82.672 287.024C75.3333 286 68.2507 284.464 61.424 282.416C54.768 280.368 48.7947 277.808 43.504 274.736C39.7493 272.688 37.104 270.043 35.568 266.8C34.032 263.387 33.4347 259.973 33.776 256.56C34.288 253.147 35.568 250.16 37.616 247.6C39.8347 244.869 42.5653 243.163 45.808 242.48C49.2213 241.627 52.976 242.224 57.072 244.272C64.0693 248.197 71.664 251.099 79.856 252.976C88.2187 254.853 96.496 255.792 104.688 255.792C117.147 255.792 126.021 253.915 131.312 250.16C136.603 246.235 139.248 241.371 139.248 235.568C139.248 230.619 137.371 226.693 133.616 223.792C129.861 220.891 123.291 218.416 113.904 216.368L84.976 210.224C68.592 206.811 56.3893 201.008 48.368 192.816C40.5173 184.453 36.592 173.531 36.592 160.048C36.592 151.515 38.384 143.749 41.968 136.752C45.552 129.755 50.5867 123.696 57.072 118.576C63.5573 113.456 71.2373 109.531 80.112 106.8C89.1573 104.069 99.056 102.704 109.808 102.704C119.365 102.704 128.752 103.899 137.968 106.288C147.184 108.507 155.291 111.835 162.288 116.272C165.701 118.32 168.005 120.965 169.2 124.208C170.565 127.28 170.992 130.437 170.48 133.68C170.139 136.752 168.859 139.483 166.64 141.872C164.592 144.261 161.947 145.797 158.704 146.48C155.461 147.163 151.536 146.395 146.928 144.176C141.296 141.275 135.323 139.141 129.008 137.776C122.693 136.411 116.208 135.728 109.552 135.728C102.384 135.728 96.24 136.667 91.12 138.544C86.1707 140.421 82.3307 143.067 79.6 146.48C77.04 149.893 75.76 153.819 75.76 158.256C75.76 163.205 77.552 167.216 81.136 170.288C84.72 173.36 90.9493 175.835 99.824 177.712L128.752 183.856C145.477 187.44 157.936 193.243 166.128 201.264C174.32 209.115 178.416 219.525 178.416 232.496C178.416 241.029 176.709 248.795 173.296 255.792C169.883 262.619 164.933 268.507 158.448 273.456C151.963 278.405 144.197 282.245 135.152 284.976C126.107 287.536 115.952 288.816 104.688 288.816Z" fill="#116B3C"/>
<path d="M275.474 276.042C277.154 281.303 282.78 284.206 288.042 282.526C293.303 280.846 296.206 275.22 294.526 269.958L275.474 276.042ZM236.585 98.1133C231.677 95.5808 225.646 97.5066 223.113 102.415L181.845 182.395C179.312 187.303 181.238 193.335 186.146 195.867C191.054 198.4 197.086 196.474 199.618 191.566L236.301 120.472L307.395 157.155C312.303 159.688 318.335 157.762 320.867 152.854C323.4 147.946 321.474 141.914 316.566 139.382L236.585 98.1133ZM294.526 269.958L241.526 103.958L222.474 110.042L275.474 276.042L294.526 269.958Z" fill="#1FC16B"/>
</g>
<defs>
<clipPath id="clip0_553_696">
<rect width="360" height="360" fill="white"/>
</clipPath>
</defs>
</svg>
